<?xml version="1.0" ?><!DOCTYPE svg  PUBLIC '-//W3C//DTD SVG 1.1//EN'  'http://www.w3.org/Graphics/SVG/1.1/DTD/svg11.dtd'><svg height="100%" style="fill-rule:evenodd;clip-rule:evenodd;stroke-linejoin:round;stroke-miterlimit:2;" version="1.1" viewBox="0 0 32 32" width="100%" xml:space="preserve" xmlns="http://www.w3.org/2000/svg" xmlns:serif="http://www.serif.com/" xmlns:xlink="http://www.w3.org/1999/xlink"><path d="M10.994,13.001l0.012,10c0.001,0.552 0.45,1 1.001,0.999c0.552,-0.001 1,-0.449 0.999,-1.001l-0.012,-10c-0.001,-0.552 -0.45,-1 -1.001,-0.999c-0.552,0.001 -1,0.449 -0.999,1.001Z"/><path d="M14.988,13.001l0.012,10c0.001,0.552 0.449,1 1.001,0.999c0.552,-0.001 1,-0.449 0.999,-1.001l-0.012,-10c-0.001,-0.552 -0.45,-1 -1.002,-0.999c-0.552,0.001 -0.999,0.449 -0.998,1.001Z"/><path d="M18.981,13.001l0.013,10c0,0.552 0.449,1 1.001,0.999c0.552,-0.001 0.999,-0.449 0.999,-1.001l-0.013,-10c-0,-0.552 -0.449,-1 -1.001,-0.999c-0.552,0.001 -0.999,0.449 -0.999,1.001Z"/><path d="M10.994,5.99l-6.002,-0c-0.552,-0 -1,0.448 -1,1c-0,0.552 0.448,1 1,1l0.992,-0l-0,18.989c-0,0.796 0.316,1.559 0.878,2.121c0.563,0.563 1.326,0.879 2.122,0.879c3.463,-0 10.536,-0 14,-0c0.795,-0 1.558,-0.316 2.121,-0.879c0.563,-0.562 0.879,-1.325 0.879,-2.121l-0,-18.989l1.012,-0c0.552,-0 1,-0.448 1,-1c-0,-0.552 -0.448,-1 -1,-1l-6.015,-0l0,-0.99c0,-0.796 -0.316,-1.559 -0.878,-2.121c-0.563,-0.563 -1.326,-0.879 -2.122,-0.879c-1.218,-0 -2.769,-0 -3.987,-0c-0.796,-0 -1.559,0.316 -2.121,0.879c-0.563,0.562 -0.879,1.325 -0.879,2.121l-0,0.99Zm12.99,2l-16,-0l-0,18.989c-0,0.265 0.105,0.519 0.292,0.707c0.188,0.187 0.442,0.293 0.708,0.293l14,-0c0.265,-0 0.519,-0.106 0.707,-0.293c0.187,-0.188 0.293,-0.442 0.293,-0.707l-0,-18.989Zm-5.003,-2l0,-0.99c0,-0.265 -0.105,-0.52 -0.292,-0.707c-0.188,-0.188 -0.442,-0.293 -0.708,-0.293l-3.987,-0c-0.265,-0 -0.52,0.105 -0.707,0.293c-0.188,0.187 -0.293,0.442 -0.293,0.707l-0,0.99l5.987,-0Z"/></svg>